# xmcd
#
# Track frame offsets: 
#        150
#        19755
#        31711
#        52066
#        77153
#        98152
#        115926
#        135839
#        146092
#        173500
#        197405
#
# Disc length: 2938 seconds
#
# Revision: 7
# Processed by: cddbd v1.5.2PL0 Copyright (c) Steve Scherf et al.
# Submitted via: ExactAudioCopy v1.0b3
#
DISCID=840b780b
DTITLE=The Robert Cray Band - In My Soul
DYEAR=2014
DGENRE=Blues
TTITLE0=You Move Me
TTITLE1=Nobody's Fault But Mine
TTITLE2=Fine Yesterday
TTITLE3=Your Good Thing Is About To End
TTITLE4=I Guess I'll Never Know
TTITLE5=Hold On
TTITLE6=What Would You Say
TTITLE7=Hip Tight Onions
TTITLE8=You're Everything
TTITLE9=Deep In My Soul
TTITLE10=Pillow
EXTD=
EXTT0=
EXTT1=
EXTT2=
EXTT3=
EXTT4=
EXTT5=
EXTT6=
EXTT7=
EXTT8=
EXTT9=
EXTT10=
PLAYORDER=
